<svg xmlns="http://www.w3.org/2000/svg" xmlns:xlink="http://www.w3.org/1999/xlink" width="443.895" height="50" viewBox="0 0 443.895 50">
  <defs>
    <clipPath id="clip-path">
      <rect id="長方形_23" data-name="長方形 23" width="33.781" height="50" fill="#f3b3b3"/>
    </clipPath>
  </defs>
  <g id="グループ_24649" data-name="グループ 24649" transform="translate(-62.606 -44)">
    <g id="グループ_24450" data-name="グループ 24450" transform="translate(-2637.269 467.818)">
      <path id="パス_1" data-name="パス 1" d="M6.876-61.892H9.648c.433,0,.823-.13.823-.433a2.865,2.865,0,0,0-1.494-1.6c-.238,0-.693.585-1.083,1.169H6.876v-2.036c.217-.087.368-.173.411-.325H9.042c.433,0,.823-.108.823-.433a2.932,2.932,0,0,0-1.473-1.581c-.238,0-.671.563-1.04,1.148h-3.4a.808.808,0,0,0-.26.043,19.846,19.846,0,0,0,2.9-4.526,10.1,10.1,0,0,1,1.754,1.689c.585.736.953,1.6,1.581,1.494a.862.862,0,0,0,.606-1.191,3.071,3.071,0,0,0-1.278-1.473,15.955,15.955,0,0,0-2.274-1.321q.585-.032.585-.325c0-.347-1.1-.693-1.949-.8a.3.3,0,0,0-.347.282A18.994,18.994,0,0,1,.9-64.339c-.368.433.108.866.541.52A13.253,13.253,0,0,0,3.5-65.725a.422.422,0,0,0-.022.173c0,.346.195.433.476.433H5.533v2.361H2.177c-.282,0-.476.108-.476.433,0,.347.195.433.476.433H5.533v5.544c-1.148.26-2.426.476-3.812.671-.173.022-.26.087-.238.282.238,1.169.65,2.1,1.1,2.079.347,0,.52-.476.606-.975a39.5,39.5,0,0,0,7.168-2.447c.823-.455.606-1.083-.3-.8-.888.282-1.949.585-3.183.888ZM3.433-57.474a.817.817,0,0,0,1.061-.585c.26-.8-.455-1.668-1.3-2.339-.476-.346-.8-.022-.671.433.108.411.238.845.3,1.234C2.935-58.146,2.956-57.626,3.433-57.474Zm5.241-3.508c-.195-.043-.325.13-.347.3a12,12,0,0,1-.585,2.6c-.195.52.217.78.65.368a7.75,7.75,0,0,0,1.191-1.733c.65,0,.91-.108.888-.411C10.471-60.2,9.453-60.788,8.674-60.983Zm9.789-9.139c.022.585.022,1.668,0,2.815H12.853c0-1.126.022-2.187.065-2.729a1.833,1.833,0,0,0,.368-.087Zm-5.631,6.713c0-.455,0-1.711.022-3.032h5.609l-.043,3.032Zm5.587.866v.087c0,.346.152.736.65.736.585,0,.931-.152.931-.823,0-.91-.087-5.327-.043-7.147.455-.173.888-.368.888-.693,0-.5-1.321-1.494-1.776-1.494-.238,0-.65.455-.975.888H13.46a5.6,5.6,0,0,0-1.949-.8.283.283,0,0,0-.3.3c.3,2.707.152,12.539.108,16q-.91.195-1.884.325c-.173.022-.26.087-.238.282.195,1.169.563,2.166,1.018,2.166.368,0,.563-.5.65-1.018A21.324,21.324,0,0,0,15.777-55.7c.736-.455.541-1.039-.282-.78-.693.217-1.6.455-2.62.693l-.043-6.757h2.057c.3,4.353,1.668,7.558,4.808,9.291.606.368.8.108,1.018-.152a1.719,1.719,0,0,1,1-.628c.5-.13.671-.368,0-.606a8.316,8.316,0,0,1-4.31-3.075,13.766,13.766,0,0,0,2.945-1.949c.628.152.91.087.975-.173.087-.39-.65-1.1-1.408-1.451-.238-.108-.368.022-.5.217a10.663,10.663,0,0,1-2.469,2.642,11.377,11.377,0,0,1-1.364-4.115Zm29.344-6.28c.866,0,1.256-.217,1.256-.52,0-.563-1.646-1.906-2.1-1.906-.347,0-.975.845-1.451,1.559H40.66V-70.9c.671-.152,1.148-.325,1.148-.78,0-.585-2.187-.65-2.555-.65a.272.272,0,0,0-.3.325,19.546,19.546,0,0,1,.065,2.317H33.448a5.879,5.879,0,0,0-1.711-.8c-.282-.043-.411.065-.39.411.108,2.014.173,4.245.173,6.129-.043,4.44-.671,7.168-2.166,9.724-.411.628.195,1.018.693.5,2.512-2.577,2.945-6.5,3.054-9.745.065-1.992.108-3.508.065-5.349ZM46.55-61.394c.411.693.606,1.343,1.213,1.3a.931.931,0,0,0,.866-1.083c-.087-1.1-1.408-1.949-2.6-2.3-.606-.173-.8.282-.5.671A13.2,13.2,0,0,1,46.55-61.394Zm.26-4.483c.022-.433-1.3-1-2.014-1.169-.282-.043-.411.043-.455.238a10.96,10.96,0,0,1-2.555,6.129c-.368.5.087.845.563.5a9.554,9.554,0,0,0,3.465-5.284C46.464-65.444,46.789-65.552,46.81-65.877ZM37.5-61.567c.26.585.39,1.1.91,1.148a.87.87,0,0,0,.931-.866c.065-.866-.888-1.581-1.906-2.057-.541-.238-.8.173-.563.585A8.957,8.957,0,0,1,37.5-61.567Zm.823-4.375c0-.433-1.386-.975-2.1-1.1-.3-.043-.433.065-.455.26a12.392,12.392,0,0,1-2.447,6.735c-.347.5.13.8.585.411a10.266,10.266,0,0,0,3.378-5.869C37.931-65.487,38.321-65.617,38.321-65.942Zm2.9,11.521v-3.422h4.591c.8,0,1.213-.195,1.213-.5,0-.541-1.581-1.841-2.014-1.841-.325,0-.931.8-1.386,1.473h-2.4V-66.7c.671-.152,1.148-.325,1.148-.78,0-.563-2.122-.628-2.49-.628-.195,0-.325.108-.3.3.173,1.3.195,5.5.195,9.1H34.9c-.282,0-.476.108-.476.433,0,.347.195.433.476.433h4.873c-.022,1.343-.022,2.555-.043,3.422H32.365c-.282,0-.476.108-.476.433,0,.347.195.433.476.433H48.218c.866,0,1.256-.217,1.256-.52,0-.563-1.646-1.906-2.1-1.906-.347,0-.975.845-1.451,1.559Zm26.486-5.371a1.738,1.738,0,0,0,1.732-1.732,1.738,1.738,0,0,0-1.732-1.733,1.738,1.738,0,0,0-1.733,1.733A1.738,1.738,0,0,0,67.709-59.792Zm28.153-9.117c.736,0,1.083-.152,1.083-.433,0-.476-1.408-1.668-1.8-1.668-.282,0-.8.65-1.191,1.234H92.18v-.368a7.3,7.3,0,0,1,.087-1.083c.52-.087.888-.26.888-.563,0-.541-1.992-.606-2.339-.606-.195,0-.3.087-.282.3a11.041,11.041,0,0,1,.152,1.949v.368h-3.92c-.282,0-.476.108-.476.433,0,.347.195.433.476.433Zm-2.49.5a10.9,10.9,0,0,1-1.256,3.552c-.26.52.173.823.628.455A9.334,9.334,0,0,0,94.714-67.2c.671-.022.931-.152.931-.455,0-.368-1.061-.866-1.819-1.039A.347.347,0,0,0,93.371-68.411Zm-5.111.736c.152.455.325.931.433,1.364.173.671.217,1.256.758,1.386A.912.912,0,0,0,90.6-65.66c.238-.91-.628-1.841-1.624-2.555C88.434-68.584,88.065-68.173,88.26-67.675ZM96.273-63.3c.715,0,1.018-.13,1-.411,0-.433-1.3-1.538-1.668-1.538-.26,0-.693.563-1.061,1.083H86.246c-.282,0-.476.108-.476.433,0,.347.195.433.476.433ZM92.2-59.662h3.682c.715,0,1.039-.13,1.018-.411,0-.455-1.321-1.559-1.689-1.559-.26,0-.715.563-1.083,1.1H92.2c0-.671.022-1.278.022-1.559.541-.065.823-.26.823-.5,0-.455-1.689-.52-2.079-.52a.25.25,0,0,0-.282.3,21.273,21.273,0,0,1,.108,2.274H86.528c-.282,0-.476.108-.476.433,0,.346.195.433.476.433h3.552a11.845,11.845,0,0,1-4.093,4.7c-.476.39-.108.91.476.628a10.481,10.481,0,0,0,4.353-3.617c-.022,1-.087,4.18-.087,4.548a.514.514,0,0,0,.541.585c.606,0,.931-.152.931-.628l-.022-4.461ZM94.887-56a.853.853,0,0,0,.758-1.04c-.13-.866-1.191-1.343-2.274-1.581-.585-.108-.758.347-.433.715a12.094,12.094,0,0,1,.845,1C94.129-56.392,94.389-55.915,94.887-56Zm4.375-8.771c.043-1.559.043-3.054,0-4.591a27.876,27.876,0,0,0,5.284-1.061c.8.411,1.234.152.975-.325a4.787,4.787,0,0,0-1-1.148c-.433-.368-.541-.368-1.04-.087a17.692,17.692,0,0,1-3.941,1.646,5.316,5.316,0,0,0-1.732-.78c-.282-.043-.411.065-.368.39a62.555,62.555,0,0,1,.3,6.519c0,5.436-1.126,7.8-3.768,10.438-.5.5-.022.953.5.606,4.245-2.772,4.678-7.06,4.764-10.417v-.325h2.339v4.764c0,3.075-.065,4.938-.065,5.7,0,.411.152.65.585.65.693,0,1.018-.325,1.018-.78,0-.671-.065-2.555-.065-5.566v-4.223q.78-.13.78-.52v-.022h1.148c.476,0,.953-.152.931-.476a3.2,3.2,0,0,0-1.668-1.776c-.282,0-.823.715-1.256,1.386Zm18.993-1.581h2.057c.346,0,.823-.152.823-.476,0-.455-1.126-1.754-1.559-1.754-.282,0-.78.693-1.191,1.364h-.13c.022-1.516.022-3.01.043-3.7.671-.13,1.1-.368,1.1-.736,0-.52-1.126-.65-2.512-.65-.195,0-.325.108-.282.3a42.031,42.031,0,0,1,.282,4.786h-2.361c-.282,0-.476.108-.476.433,0,.347.195.433.476.433h2.3a16.768,16.768,0,0,1-3.1,7.515c-.455.606.065.975.606.52a13.854,13.854,0,0,0,2.577-3.487c-.043,2.187-.217,7.493-.217,8.381a.587.587,0,0,0,.65.628c.693,0,1-.26,1-.758,0-.931-.087-7.8-.087-9.334Zm.91,2.425c-.52-.217-.758.152-.541.541a10.505,10.505,0,0,1,.628,1.321c.238.628.411,1.148.931,1.191a.85.85,0,0,0,.975-.823C121.243-62.65,120.2-63.473,119.164-63.928Zm6.692,7.233v-.217c0-.39.022-1.061.022-1.386h2.6l-.022,1.6Zm.411-2.469a4.525,4.525,0,0,0-1.581-.693.245.245,0,0,0-.325.26,38.062,38.062,0,0,1,.087,4.331.5.5,0,0,0,.541.563c.563,0,.888-.173.888-.65v-.476h2.555v.173c0,.346.108.736.606.736.52,0,.823-.152.823-.823,0-.39,0-1.559.022-2.231.325-.13.65-.3.65-.585,0-.455-1.148-1.343-1.538-1.343-.195,0-.52.368-.8.736Zm-2.9-2.252a5.335,5.335,0,0,0-1.8-.736.259.259,0,0,0-.3.282c.217,2.079.087,6.67.065,8.229a.548.548,0,0,0,.606.606c.628,0,.953-.217.953-.693v-3.682c0-.476,0-2.447.043-3.075.087-.022.195-.043.282-.065h8.338v2.231c0,.91,0,2.079-.043,2.837-.043.476-.195.65-.65.65-.238,0-.758-.043-.91-.043-.411,0-.476.5-.043.693.975.39.455,1.126,1.3,1.126a1.662,1.662,0,0,0,1.733-1.8c.022-1.8,0-3.812.022-5.133.433-.152.845-.39.845-.671,0-.39-1.3-1.494-1.819-1.494-.13,0-.476.368-.78.736Zm2.079-2.447c0-.39.022-.953.022-1.278h3.357c0,.455-.022,1.04-.022,1.538h-3.357Zm3.248-3.9a7,7,0,0,0,.541,1.061,2.065,2.065,0,0,0-.693.693h-2.664a4.713,4.713,0,0,0-.866-.476,9.542,9.542,0,0,0,.975-1.278Zm4.006,0c.78,0,1.148-.173,1.148-.476,0-.5-1.494-1.733-1.906-1.733-.3,0-.845.715-1.278,1.343h-4.18a5.539,5.539,0,0,0,.238-.52c.628.065,1.018-.065,1.018-.368,0-.217-.26-.433-.628-.65,1.364-.152,2.6-.325,3.573-.52.78.39,1.191.13.953-.3a4.776,4.776,0,0,0-.866-1c-.411-.346-.5-.3-1.018-.065a35.978,35.978,0,0,1-7.883,1.494c-.671.087-.563.736.065.715,1.1,0,2.274-.065,3.422-.152a12.72,12.72,0,0,1-.52,1.364H121.2c-.282,0-.476.108-.476.433,0,.347.195.433.476.433h3.14a12.45,12.45,0,0,1-3.876,3.552c-.563.368-.26.975.346.693a12.312,12.312,0,0,0,3.248-2.057c.087,1.234.022,2.339.022,3.205,0,.368.173.563.52.563.541,0,.845-.173.845-.65v-.282h3.335c0,.347.108.715.585.715.541,0,.823-.152.823-.823,0-.347.022-1.429.022-2.014a1.868,1.868,0,0,0,.411-.238,6.945,6.945,0,0,0,1.559.975c.715.238.758.108,1.018-.217a1.47,1.47,0,0,1,.693-.563c.26-.13.628-.411-.043-.541-2.057-.52-3.4-1.213-4.2-2.317Zm10.2,9.356a3.426,3.426,0,0,1,0,1.754c-.325.78-1.148,1.234-1.061,1.776a.616.616,0,0,0,.78.5,1.969,1.969,0,0,0,1.581-2.144,5.767,5.767,0,0,0-.52-2.1A.4.4,0,0,0,142.9-58.406Zm2.426-.152c-.411-.368-.758-.087-.671.368a9.768,9.768,0,0,1,.217,1.148c.043.585-.022,1.061.39,1.234a.752.752,0,0,0,1.061-.455C146.646-57,146.061-57.843,145.325-58.557Zm1.949,2.166a.729.729,0,0,0,.931-.563c.217-.715-.39-1.386-1.148-1.971-.411-.325-.736-.022-.606.411.108.325.238.671.325,1.018C146.884-57,146.862-56.5,147.274-56.392Zm2.014-.845a.667.667,0,0,0,.8-.628c.108-.693-.541-1.256-1.321-1.733-.455-.238-.715.087-.52.476a7.153,7.153,0,0,1,.411.931C148.833-57.734,148.876-57.28,149.288-57.236Zm-4.2-6.367H147.3v2.274h-2.187Zm0-4.05c.022-.888.022-1.8.065-2.274H147.3v2.274Zm2.209,3.183h-2.231v-2.317H147.3Zm1.408,3.14V-63.6h2.577c.606,0,.953-.13.931-.411,0-.433-1.213-1.538-1.581-1.538-.26,0-.693.541-1.061,1.083H148.7v-2.317h2.6c.563,0,.91-.13.91-.411a3.039,3.039,0,0,0-1.581-1.538c-.26,0-.671.541-1.04,1.083H148.7v-1.733c.282-.087.433-.238.433-.455a.13.13,0,0,0-.022-.087H151.5c.715,0,1.083-.152,1.083-.433-.022-.476-1.408-1.646-1.8-1.646-.282,0-.78.628-1.169,1.213h-3.92a5.058,5.058,0,0,0-1.841-.8.267.267,0,0,0-.325.282c.282,2.49.087,9.637.087,11.608,0,.39.195.606.563.606.628,0,.931-.238.931-.715v-.65h5.522a12.418,12.418,0,0,1-.758,5,1.364,1.364,0,0,1-1.3.866,7.125,7.125,0,0,1-1.386-.217.337.337,0,0,0-.173.65,1.116,1.116,0,0,1,.693.715.629.629,0,0,0,.693.455,2.881,2.881,0,0,0,2.815-1.971,15.242,15.242,0,0,0,.8-5c.433-.217.78-.52.78-.758,0-.368-1.169-1.278-1.646-1.278-.173,0-.5.325-.78.671ZM159.6-69.645c.022,1.191,0,3.941-.022,5.674h-4.331c.043-1.884.043-3.963,0-5.674Zm-.043,6.54v.628a.662.662,0,0,0,.671.736c.606,0,.975-.152.975-.823,0-.91-.087-5.024-.022-6.822.39-.152.758-.346.758-.628,0-.476-1.3-1.429-1.754-1.429-.238,0-.671.5-1,.931h-3.422a5.722,5.722,0,0,0-1.884-.953c-.282-.043-.411.065-.39.39a79.673,79.673,0,0,1,.282,8.229c-.043,4.223-.628,7.038-2.62,9.291-.5.541.022,1.018.52.606,3.14-2.209,3.465-6.172,3.552-9.572l.022-.585h1.1c.282,4.656,1.6,8.078,4.18,9.9.52.3.715.152.953-.152a1.824,1.824,0,0,1,1.018-.693c.433-.152.671-.411.043-.65-3.075-1.278-5.024-4.288-5.219-8.4Zm17.282-7.19c.282.65.455,1.213,1.04,1.256a1.02,1.02,0,0,0,1.1-1c.043-1.018-1.061-1.754-2.209-2.209-.628-.26-.888.217-.628.671C176.38-71.161,176.64-70.706,176.835-70.295Zm-2.577,11.521v-2.469h4.071v2.469Zm4.071-5.847v2.512h-4.05c.022-1,.043-2.014.065-2.512Zm-3.378-.866a5.674,5.674,0,0,0-1.992-.866c-.195,0-.347.13-.325.3.3,2.62.087,10.59.087,12.669a.532.532,0,0,0,.585.606c.671,0,1-.238,1-.715,0-.455-.022-2.75-.022-4.418h4.05c0,.91-.022,1.8-.043,2.382-.043.563-.217.758-.628.758-.325,0-1.018-.065-1.148-.065-.411,0-.476.476-.043.693,1.018.411.585,1.213,1.473,1.213a1.682,1.682,0,0,0,1.776-1.862c.022-3.162-.022-7.082.043-9.442.433-.152.8-.368.8-.65,0-.39-1.321-1.494-1.819-1.494-.152,0-.585.476-.91.888Zm9.074,1.018c.671-.108,1.039-.346,1.039-.671,0-.52-1.538-.606-2.426-.606-.195,0-.325.087-.282.3a43.648,43.648,0,0,1,.173,4.764c0,.8-.13,3.833-.13,4.375,0,.39.26.563.628.563.65,0,1.039-.152,1.039-.628,0-.52-.043-3.595-.043-4.31Zm2.685-1.949c-.282,0-.368.108-.325.368.217,1.646.3,8.879.173,10.612-.043.563-.26.845-1.061.845-.455,0-1.04-.043-1.386-.065-.433-.022-.5.52-.022.65a2.839,2.839,0,0,1,1.234.65c.368.346.52.541,1.04.541a1.676,1.676,0,0,0,1.754-1.733c0-3.638-.043-8.359,0-10.612.5-.087.975-.26.975-.585C189.092-66.18,187.858-66.418,186.71-66.418Zm-4.071-2.1.022-.022a8.035,8.035,0,0,0,2.274-2.252c.65.022,1-.13,1-.455-.022-.39-1.3-1.061-2.1-1.234-.217-.065-.346.087-.368.282A9.754,9.754,0,0,1,182.01-69a.548.548,0,0,0-.043.476h-11c-.282,0-.476.108-.476.433,0,.346.195.433.476.433h18.17c.888,0,1.256-.217,1.256-.52,0-.563-1.646-1.906-2.1-1.906-.346,0-.975.845-1.473,1.559Zm19.231,13.254c0-1.559-.022-3.595-.022-4.028,0-.65,0-4.136.043-5.111.585-.087.91-.282.91-.563,0-.476-1.559-.693-2.252-.736-.217,0-.347.108-.3.3a58.163,58.163,0,0,1,.173,6.129c0,.888-.13,5.327-.13,5.891a.554.554,0,0,0,.628.606c.628,0,.975-.195.975-.671V-54.4h13.037c-.022.433-.022.758-.022.888a.549.549,0,0,0,.628.585c.671,0,1.018-.173,1.018-.671,0-.628-.043-5.046-.043-5.761,0-.585,0-4.028.022-4.981.606-.108.953-.3.953-.606,0-.476-1.581-.693-2.339-.736-.217,0-.325.108-.3.3a53.863,53.863,0,0,1,.217,6.085c0,.585-.065,2.534-.108,4.028Zm5.046-5.631a16.07,16.07,0,0,1-4.245,3.963c-.541.455-.173.953.455.628a14.119,14.119,0,0,0,4.548-3.01c-.022,1.191-.043,2.62-.043,2.88,0,.39.195.585.52.585.563,0,.91-.152.91-.628l-.022-4.158v-.26h4.721c.541,0,.888-.13.866-.411a2.9,2.9,0,0,0-1.538-1.581c-.238,0-.671.563-1.04,1.126h-3.01c0-1,.022-2.3.043-2.75.585-.065.888-.238.888-.52,0-.455-1.6-.541-2.1-.541a.25.25,0,0,0-.282.3c.087.8.108,2.426.108,3.508h-4.721c-.282,0-.476.108-.476.433,0,.346.195.433.476.433Zm-1.494-1.343a.879.879,0,0,0,1-.866c.065-.91-.888-1.559-1.906-1.992-.563-.238-.823.173-.563.606a9.318,9.318,0,0,1,.585,1.126C204.771-62.8,204.9-62.282,205.421-62.239Zm5.349.108a7.927,7.927,0,0,0,1.906-1.776c.671.087.953,0,.975-.282.043-.346-.866-1.018-1.581-1.3a.349.349,0,0,0-.476.238,9.675,9.675,0,0,1-1.386,2.6C209.882-62.2,210.25-61.827,210.77-62.131Zm-.217,2.166c-.585-.087-.715.411-.325.736a14.938,14.938,0,0,1,1.364,1.278c.606.671.953,1.191,1.494,1.039a.852.852,0,0,0,.541-1.148C213.347-59.055,211.983-59.748,210.553-59.965Zm-1.148-7.147v-1.8h5.436c.736,0,1.148-.173,1.148-.476,0-.52-1.516-1.754-1.927-1.754-.325,0-.888.736-1.321,1.364h-3.335v-1.256c.671-.152,1.148-.325,1.148-.78,0-.563-2.057-.628-2.426-.628a.272.272,0,0,0-.3.325c.108,1,.152,3.335.13,5h-3.508v-3.205c.606-.13,1.018-.3,1.018-.693,0-.52-1.884-.606-2.252-.606a.272.272,0,0,0-.3.325c.108.91.108,2.859.087,4.18h-4.028c-.282,0-.476.108-.476.433,0,.347.195.433.476.433h18.386c.845,0,1.169-.173,1.148-.476,0-.52-1.516-1.776-1.927-1.776-.325,0-.888.736-1.321,1.386ZM230.087-55.2c-.022-2.469-.043-6.778-.043-7.341,0-.845,0-5.826.108-7.32l.217-.043H244.6c.845,0,1.213-.195,1.213-.5,0-.541-1.581-1.841-2.014-1.841-.347,0-.953.8-1.408,1.473H230.845a5.945,5.945,0,0,0-2.187-.91.294.294,0,0,0-.3.3c.346,3.27.087,15.246.087,17.953a.568.568,0,0,0,.628.65c.693,0,1.018-.282,1.018-.78v-.78h15.181c.845,0,1.213-.195,1.213-.5,0-.541-1.581-1.841-2.014-1.841-.325,0-.931.8-1.386,1.473Zm8.056-7.493a15.076,15.076,0,0,0,.087-2.252c.715-.195.845-.39.866-.65h3.27c.78,0,1.169-.173,1.169-.476,0-.52-1.538-1.8-1.971-1.8-.325,0-.888.758-1.321,1.408h-5.262c.368-.563.671-1.126.91-1.581.671-.043.888-.173.888-.476.022-.368-1.083-.8-1.862-.931a.37.37,0,0,0-.476.26,12.253,12.253,0,0,1-2.9,5.349c-.347.476.065.866.563.5a9.768,9.768,0,0,0,2.274-2.252h2.187a16.34,16.34,0,0,1,.022,2.9h-5c-.282,0-.476.108-.476.433,0,.346.195.433.476.433h4.894c-.433,2.252-1.733,3.747-4.569,4.959-.628.26-.368.975.238.8,3.725-1.148,5.327-3.01,5.869-5.761h5.977c.8,0,1.169-.173,1.169-.476,0-.52-1.538-1.8-1.949-1.8-.325,0-.91.758-1.343,1.408Zm1.169,2.447c-.606-.065-.693.411-.325.715a17.965,17.965,0,0,1,1.689,1.559c.693.758,1.126,1.408,1.776,1.213a.961.961,0,0,0,.563-1.321C242.648-59.25,240.677-60.116,239.313-60.246Zm24.493-8.121h3.855a1.639,1.639,0,0,0,.325-.022,27.909,27.909,0,0,1-2.469,2.837h-1.711Zm-1.733,13.34-.022-2.555v-.152h7.168l-.022,2.707Zm7.147-6.042c.022.52.022,1.451,0,2.469h-7.168c0-.845.022-1.927.043-2.382a2.061,2.061,0,0,0,.39-.087Zm-1.733-4.483a34.355,34.355,0,0,0,3.66-4.548c.758.13,1.234,0,1.234-.39,0-.455-1-1.1-1.819-1.386-.26-.087-.39-.043-.5.173a20.617,20.617,0,0,1-1.473,2.469,3.9,3.9,0,0,0-1.711-1.451c-.325,0-.91.78-1.343,1.451h-1.733v-1.732c.671-.152,1.148-.325,1.148-.78,0-.585-2.166-.65-2.534-.65a.272.272,0,0,0-.3.325c.065.585.108,1.646.13,2.837h-4.829c-.282,0-.476.108-.476.433,0,.346.195.433.476.433h4.851c0,.975,0,1.971-.022,2.815h-6.735c-.282,0-.476.108-.476.433,0,.346.195.433.476.433h9.117c-.931.845-1.884,1.624-2.859,2.361a4.244,4.244,0,0,0-1.083-.346.268.268,0,0,0-.3.282c.022.282.065.628.065,1a37.061,37.061,0,0,1-5.652,3.183c-.628.282-.325,1.039.325.8a32.434,32.434,0,0,0,5.392-2.555c.043,2.4-.043,5.392-.065,6.584a.548.548,0,0,0,.606.606c.671,0,1.018-.217,1.018-.693v-.693h7.1v.541a.65.65,0,0,0,.671.736c.585,0,.953-.152.953-.823,0-.91-.087-5.046-.022-6.908.433-.173.888-.39.888-.715,0-.5-1.343-1.516-1.819-1.516-.26,0-.671.476-1.018.91h-5.414a32.9,32.9,0,0,0,3.205-2.75h6.757c.758,0,1.148-.195,1.148-.52,0-.541-1.516-1.906-1.971-1.906-.325,0-.953.845-1.429,1.559Zm20.4,6.194c-.563-.26-.888.195-.606.671A14.039,14.039,0,0,1,288-57.3c.3.693.476,1.278,1.018,1.321a.887.887,0,0,0,.975-.931C290.054-57.843,289.057-58.709,287.888-59.359Zm7.19,2.707v-.325c0-.411,0-1.169.022-1.538h2.469l-.022,1.862Zm.411-2.729a4.526,4.526,0,0,0-1.581-.693.253.253,0,0,0-.325.26,43.744,43.744,0,0,1,.087,4.656c0,.39.195.585.52.585.585,0,.888-.195.888-.65v-.563h2.447v.108c0,.347.13.736.606.736.541,0,.845-.152.845-.823,0-.411,0-1.8.022-2.534.282-.108.563-.282.563-.541,0-.433-1.1-1.3-1.494-1.3-.217,0-.541.39-.8.758Zm-2.772-2.231a5.278,5.278,0,0,0-1.819-.78.268.268,0,0,0-.3.282c.217,2.122.087,7.06.065,8.663a.542.542,0,0,0,.585.606c.628,0,.953-.217.953-.693l-.022-3.92c0-.52.022-2.62.065-3.292h8.511v2.4c0,1,0,2.231-.043,3.01-.043.5-.195.65-.65.671a6,6,0,0,1-.866-.022c-.411-.022-.52.476-.087.671.975.39.455,1.126,1.3,1.126a1.662,1.662,0,0,0,1.733-1.8c.022-1.927,0-4.136.022-5.544.433-.173.823-.39.823-.671,0-.39-1.278-1.494-1.8-1.494-.152,0-.52.39-.823.78Zm1.8-2.426c0-.411,0-.975.022-1.278h3.487c0,.476-.022,1.083-.043,1.581h-3.465Zm3.508-3.768a7.949,7.949,0,0,0,.563,1.018.164.164,0,0,0-.087-.022c-.173,0-.455.3-.715.628h-2.924a3.654,3.654,0,0,0-.65-.368,13.324,13.324,0,0,0,1-1.256Zm3.638,0c.736,0,1.061-.152,1.061-.433,0-.476-1.386-1.624-1.776-1.624-.282,0-.758.628-1.148,1.191h-4.028c.195-.368.39-.736.563-1.1.476,0,.715-.173.715-.39a.308.308,0,0,0-.043-.13c1.1-.152,2.122-.3,2.945-.476.758.411,1.191.13.953-.3a4.135,4.135,0,0,0-.91-1.039c-.433-.368-.52-.325-1.04-.108a34.352,34.352,0,0,1-7.883,1.581c-.671.108-.563.78.043.758,1.169-.022,2.425-.087,3.638-.195a12.155,12.155,0,0,1-.693,1.408h-3.054a.529.529,0,0,0-.39.13,3.075,3.075,0,0,0-1.256-.91c-.3,0-.8.671-1.213,1.278h-2.057a29.629,29.629,0,0,0,1.256-2.924c.65-.022.974-.13.974-.455,0-.433-1.321-.931-2.057-1.061-.26-.043-.39.065-.433.26a22.125,22.125,0,0,1-2.837,7.363c-.3.52.195.823.628.411a13.231,13.231,0,0,0,2.014-2.729h.347c.087,1.364.13,2.75.087,4.071h-2.664c-.282,0-.476.108-.476.433,0,.346.195.433.476.433h2.62a18.538,18.538,0,0,1-.628,4.158,11.814,11.814,0,0,1-2.729,4.483c-.455.5.087,1,.585.585a10.48,10.48,0,0,0,3.443-4.808,18.483,18.483,0,0,0,.758-4.418h2.209c.563,0,.975-.152.975-.455,0-.476-1.3-1.689-1.711-1.689-.281,0-.78.671-1.191,1.278H287.5c.087-1.278.108-2.577.13-3.768a1.2,1.2,0,0,0,.65-.3h1.8c.606,0,1.018-.152,1.018-.455V-67.8h2.426a15.025,15.025,0,0,1-3.313,3.313c-.433.39-.108.91.455.585a11.45,11.45,0,0,0,2.512-1.646c.043,1.1,0,2.209,0,2.945,0,.368.173.563.5.563.563,0,.845-.173.845-.628v-.195h3.465a.59.59,0,0,0,.628.628c.563,0,.888-.152.888-.823-.022-.39-.022-1.451,0-2.057a.905.905,0,0,0,.368-.238,5.021,5.021,0,0,0,1.278.845c.52.217.671.13.953-.152a2.046,2.046,0,0,1,.671-.455c.693-.282.65-.52.022-.693a6.394,6.394,0,0,1-3.7-1.992Zm20.682,12.929v-7.017h5.869c.715,0,1.191-.195,1.191-.52,0-.541-1.559-1.949-2.036-1.949-.346,0-.974.866-1.473,1.6h-3.552v-5.934c.368-.108.541-.26.541-.5a.264.264,0,0,0-.13-.217h6.085c.866,0,1.278-.195,1.278-.52,0-.563-1.646-1.949-2.122-1.949-.368,0-1,.866-1.494,1.6H313.009c-.282,0-.476.108-.476.433,0,.346.195.433.476.433h7.8l-.022,14.531h-3.963v-8.879c.671-.152,1.148-.325,1.148-.8,0-.563-2.209-.628-2.577-.628-.195,0-.325.108-.3.3.217,1.624.238,6.93.195,10.005h-3.508c-.282,0-.476.108-.476.433,0,.347.195.433.476.433h17.8c.91,0,1.321-.195,1.321-.52,0-.563-1.668-1.992-2.187-1.992-.39,0-1.04.888-1.538,1.646Zm20.292-.39c0-1.559-.022-3.595-.022-4.028,0-.65,0-4.136.043-5.111.585-.087.91-.282.91-.563,0-.476-1.559-.693-2.252-.736-.217,0-.347.108-.3.3a58.141,58.141,0,0,1,.173,6.129c0,.888-.13,5.327-.13,5.891a.555.555,0,0,0,.628.606c.628,0,.975-.195.975-.671V-54.4h13.037c-.022.433-.022.758-.022.888a.549.549,0,0,0,.628.585c.671,0,1.018-.173,1.018-.671,0-.628-.043-5.046-.043-5.761,0-.585,0-4.028.022-4.981.606-.108.953-.3.953-.606,0-.476-1.581-.693-2.339-.736-.217,0-.325.108-.3.3a53.855,53.855,0,0,1,.217,6.085c0,.585-.065,2.534-.108,4.028Zm5.046-5.631a16.072,16.072,0,0,1-4.245,3.963c-.541.455-.173.953.455.628a14.12,14.12,0,0,0,4.548-3.01c-.022,1.191-.043,2.62-.043,2.88,0,.39.195.585.52.585.563,0,.91-.152.91-.628l-.022-4.158v-.26h4.721c.541,0,.888-.13.866-.411a2.9,2.9,0,0,0-1.538-1.581c-.238,0-.671.563-1.04,1.126H349.8c0-1,.022-2.3.043-2.75.585-.065.888-.238.888-.52,0-.455-1.6-.541-2.1-.541a.251.251,0,0,0-.282.3c.087.8.108,2.426.108,3.508H343.74c-.282,0-.476.108-.476.433,0,.346.195.433.476.433Zm-1.494-1.343a.879.879,0,0,0,1-.866c.065-.91-.888-1.559-1.906-1.992-.563-.238-.823.173-.563.606a9.324,9.324,0,0,1,.585,1.126C345.537-62.8,345.667-62.282,346.187-62.239Zm5.349.108a7.926,7.926,0,0,0,1.906-1.776c.671.087.953,0,.975-.282.043-.346-.866-1.018-1.581-1.3a.349.349,0,0,0-.476.238,9.675,9.675,0,0,1-1.386,2.6C350.648-62.2,351.016-61.827,351.536-62.131Zm-.217,2.166c-.585-.087-.715.411-.325.736a14.932,14.932,0,0,1,1.364,1.278c.606.671.953,1.191,1.494,1.039a.852.852,0,0,0,.541-1.148C354.113-59.055,352.749-59.748,351.319-59.965Zm-1.148-7.147v-1.8h5.436c.736,0,1.148-.173,1.148-.476,0-.52-1.516-1.754-1.927-1.754-.325,0-.888.736-1.321,1.364h-3.335v-1.256c.671-.152,1.148-.325,1.148-.78,0-.563-2.057-.628-2.425-.628a.272.272,0,0,0-.3.325c.108,1,.152,3.335.13,5h-3.508v-3.205c.606-.13,1.018-.3,1.018-.693,0-.52-1.884-.606-2.252-.606a.272.272,0,0,0-.3.325c.108.91.108,2.859.087,4.18h-4.028c-.281,0-.476.108-.476.433,0,.347.195.433.476.433h18.386c.845,0,1.169-.173,1.148-.476,0-.52-1.516-1.776-1.927-1.776-.325,0-.888.736-1.321,1.386Zm29.106-.173c.476.628.823,1.126,1.408,1.04a1.021,1.021,0,0,0,.888-1.256c-.195-1.083-1.624-1.668-2.924-1.841-.65-.065-.8.411-.433.78A11.858,11.858,0,0,1,379.278-67.285Zm-.628,4.829c.5.628.845,1.126,1.429,1.018a1.016,1.016,0,0,0,.845-1.256c-.217-1.1-1.668-1.646-2.989-1.776-.628-.065-.758.411-.39.78A14.567,14.567,0,0,1,378.65-62.455Zm-5.739-2.512h2.924c.476,0,.931-.152.931-.476a3.243,3.243,0,0,0-1.668-1.8c-.3,0-.823.736-1.256,1.408h-.931v-3.378c.433-.087.628-.238.628-.455,0-.108-.087-.217-.238-.3a23.327,23.327,0,0,0,2.382-.606c.8.411,1.213.152.953-.3a4.77,4.77,0,0,0-.931-1.083c-.411-.347-.52-.347-1.018-.065a22.565,22.565,0,0,1-6.713,1.971c-.671.108-.541.758.065.736a27.939,27.939,0,0,0,3.443-.325v3.811h-3.508c-.281,0-.476.108-.476.433,0,.346.195.433.476.433h3.422a16.424,16.424,0,0,1-4.245,7.19c-.5.541-.043.975.541.563a13.351,13.351,0,0,0,3.79-4.071c0,4.483-.087,6.908-.087,7.818,0,.411.173.65.585.65.671,0,1.039-.325,1.039-.78,0-.866-.108-3.53-.108-8.338Zm3.79,4.18c-.022-1.018-1.213-1.8-2.382-2.144-.563-.152-.758.26-.5.628a9.389,9.389,0,0,1,.78,1.343c.346.65.585,1.148,1.126,1.148A.91.91,0,0,0,376.7-60.788Zm7.493.975c-.022-1.3-.022-2.447-.022-2.989,0-.845,0-6.237.043-7.731.671-.152,1.126-.39,1.126-.758,0-.541-1.148-.671-2.577-.671-.195,0-.325.108-.282.3a87.828,87.828,0,0,1,.3,9.334c0,.52-.022,1.559-.065,2.729l-6.995,1.04c-.282.043-.455.173-.411.5.043.346.26.39.52.346L382.7-58.73c-.065,2.166-.13,4.526-.13,5.089a.6.6,0,0,0,.671.65c.715,0,1.018-.26,1.018-.758,0-.52-.022-2.945-.043-5.2l2.685-.411c.476-.065.91-.325.866-.65-.087-.5-1.559-1.711-2.014-1.624-.325.043-.78.931-1.126,1.754Z" transform="translate(2756 -351.197)"/>
      <path id="パス_2" data-name="パス 2" d="M12.942-33.972c0-.692,0-1.246.014-1.662.014-.485.152-.72.526-.789a2.179,2.179,0,0,1,.374-.042c.1,0,.18-.028.18-.111,0-.111-.1-.139-.277-.139-.457,0-1.191.042-1.62.042s-1.288-.042-2.008-.042c-.194,0-.291.028-.291.139,0,.083.083.111.208.111a2.849,2.849,0,0,1,.54.042c.457.1.582.319.6.789.014.415.014.942.014,1.634v1.3a.492.492,0,0,1-.263.512,3.066,3.066,0,0,1-1.177.152c-2.922,0-4.82-2.23-4.82-5.208A4.122,4.122,0,0,1,6.21-40.634a3.991,3.991,0,0,1,2.742-.859,4.429,4.429,0,0,1,3.089,1.08,1.943,1.943,0,0,1,.471,1.15c.014.111.042.18.139.18s.152-.069.152-.291a18.681,18.681,0,0,1,.1-2.271c0-.1-.028-.152-.194-.166a9.05,9.05,0,0,1-1.094-.152,16.668,16.668,0,0,0-2.451-.222,6.711,6.711,0,0,0-3.726.9,5.179,5.179,0,0,0-2.41,4.529c0,3.823,3.005,5.429,6.4,5.429a7.839,7.839,0,0,0,3.338-.623c.166-.1.18-.125.18-.5Zm12.174-1.565c0,1.343,0,2.438-.069,3.019-.042.4-.125.637-.4.693a2.26,2.26,0,0,1-.5.055c-.166,0-.222.042-.222.111,0,.1.1.139.277.139.554,0,1.427-.042,1.745-.042.374,0,1.246.042,2.161.042.152,0,.263-.042.263-.139,0-.069-.069-.111-.222-.111a5.836,5.836,0,0,1-.706-.055c-.416-.055-.512-.3-.554-.679-.055-.6-.055-1.69-.055-3.033v-2.438c0-2.105,0-2.493.028-2.936.028-.485.139-.72.512-.789a2.34,2.34,0,0,1,.415-.042c.138,0,.222-.028.222-.139,0-.083-.111-.111-.291-.111-.526,0-1.343.042-1.69.042-.4,0-1.274-.042-1.8-.042-.222,0-.332.028-.332.111,0,.111.083.139.222.139a1.966,1.966,0,0,1,.5.055c.3.069.443.3.471.776.028.443.028.831.028,2.936ZM40.309-39.18h.042c.249.263,1.787,1.953,3.3,3.449,1.44,1.427,3.213,3.241,4.086,4.072.152.152.319.3.471.3.125,0,.18-.125.18-.429l.152-8.739c.014-.776.125-1.066.512-1.177a1.508,1.508,0,0,1,.415-.042q.249,0,.249-.125c0-.111-.138-.125-.319-.125-.679,0-1.2.042-1.357.042-.291,0-.956-.042-1.676-.042-.208,0-.36.014-.36.125,0,.083.055.125.222.125a2.259,2.259,0,0,1,.734.083c.332.139.457.4.471,1.246l.139,6.219H47.5c-.235-.222-2.105-2.216-3.047-3.158-2.022-2.008-4.127-4.224-4.293-4.4-.235-.249-.36-.429-.512-.429s-.18.194-.18.471l-.125,8.158c-.014,1.2-.069,1.607-.429,1.717a2.457,2.457,0,0,1-.623.069c-.139,0-.222.028-.222.111,0,.125.125.139.3.139.72,0,1.371-.042,1.5-.042.263,0,.817.042,1.717.042.194,0,.319-.028.319-.139,0-.083-.083-.111-.235-.111a2.2,2.2,0,0,1-.72-.1c-.277-.1-.457-.457-.485-1.537Zm21.606,6.856c1.953-2.978,4.058-6.149,5.969-9.252A.6.6,0,0,0,68-41.839c0-.069-.1-.111-.235-.111H63.535c-.568,0-1.233.014-2.548-.042a3.928,3.928,0,0,1-.554-.1c-.083,0-.139.069-.166.263-.069.416-.277,1.676-.277,1.994,0,.166.014.235.111.235s.139-.055.166-.249a1.567,1.567,0,0,1,.748-1.08,4.778,4.778,0,0,1,1.994-.291h2.715c-1.856,2.922-3.906,6.052-5.859,9.1-.166.249-.208.319-.208.416s.083.138.235.138c2.8,0,5.124.069,7.437.069.249,0,.346-.111.415-.36a8.786,8.786,0,0,0,.277-1.69c0-.332-.028-.429-.138-.429-.083,0-.111.083-.139.222a2.473,2.473,0,0,1-.249.665c-.222.415-.762.762-2.174.762ZM82.69-35.052a.133.133,0,0,1,.138.1L83.936-32.1a.226.226,0,0,1-.125.319c-.138.014-.194.042-.194.125s.166.1.415.111c1.108.028,2.119.028,2.618.028s.637-.028.637-.139-.069-.111-.18-.111a3.038,3.038,0,0,1-.582-.055c-.291-.069-.693-.263-1.219-1.51-.886-2.105-3.1-7.645-3.435-8.407-.138-.319-.222-.443-.346-.443s-.222.152-.388.554l-3.476,8.587c-.277.692-.54,1.163-1.177,1.246a4.193,4.193,0,0,1-.429.028c-.111,0-.166.028-.166.111,0,.111.083.139.263.139.72,0,1.482-.042,1.634-.042.429,0,1.025.042,1.468.042.152,0,.235-.028.235-.139,0-.083-.042-.111-.208-.111h-.208c-.429,0-.554-.18-.554-.429a2.687,2.687,0,0,1,.208-.845l.748-1.9c.028-.083.055-.111.125-.111Zm-2.812-.693c-.055,0-.069-.042-.055-.1L81.1-39.235c.014-.055.042-.125.083-.125s.055.069.069.125L82.5-35.828c.014.042,0,.083-.069.083Zm30.9,4.418a4,4,0,0,0,2.2-.568,2.791,2.791,0,0,0,1.3-2.41c0-1.316-.6-2.271-2.271-3.532l-.388-.291c-1.15-.873-1.468-1.357-1.468-1.994a1.458,1.458,0,0,1,1.648-1.427,1.754,1.754,0,0,1,1.51.679,1.677,1.677,0,0,1,.36.914c0,.166.042.249.139.249s.152-.111.152-.416c0-1.08.055-1.482.055-1.662,0-.1-.069-.139-.194-.166a6.7,6.7,0,0,0-1.842-.235c-1.925,0-3.2,1.094-3.2,2.618,0,1.122.526,2.091,2.05,3.282l.637.5c1.15.9,1.357,1.537,1.357,2.216a1.683,1.683,0,0,1-1.856,1.579,1.909,1.909,0,0,1-1.981-1.4,2.924,2.924,0,0,1-.125-.706c0-.111-.014-.235-.138-.235s-.152.152-.166.36-.069,1.053-.069,1.814c0,.3.042.374.263.471A4.8,4.8,0,0,0,110.778-31.327Zm16.925-6.26c-.042,0-.083-.028-.083-.1v-.291c0-2.105,0-2.493.028-2.936.028-.485.139-.72.512-.789a2.462,2.462,0,0,1,.4-.042c.166,0,.249-.028.249-.125s-.1-.125-.291-.125c-.54,0-1.413.042-1.745.042-.374,0-1.247-.042-1.994-.042-.194,0-.291.028-.291.125s.083.125.235.125a2.848,2.848,0,0,1,.54.042c.457.1.568.319.6.789.028.443.028.831.028,2.936v2.438c0,1.274,0,2.368-.069,2.95-.055.4-.125.706-.4.762a2.26,2.26,0,0,1-.5.055c-.166,0-.222.042-.222.111,0,.1.1.139.277.139.554,0,1.427-.042,1.745-.042.388,0,1.26.042,2.161.042.166,0,.277-.042.277-.139,0-.069-.069-.111-.222-.111a5.836,5.836,0,0,1-.706-.055c-.415-.055-.5-.36-.54-.748-.069-.6-.069-1.69-.069-2.964v-1.219a.073.073,0,0,1,.083-.083h5.291a.08.08,0,0,1,.083.083v1.219c0,1.274,0,2.368-.069,2.95-.055.4-.125.706-.4.762a2.26,2.26,0,0,1-.5.055c-.166,0-.222.042-.222.111,0,.1.1.139.291.139.54,0,1.413-.042,1.731-.042.388,0,1.26.042,2.161.042.166,0,.277-.042.277-.139,0-.069-.069-.111-.222-.111a5.837,5.837,0,0,1-.706-.055c-.415-.055-.5-.36-.54-.748-.069-.6-.069-1.69-.069-2.964v-2.438c0-2.105,0-2.493.028-2.936.028-.485.138-.72.512-.789a2.462,2.462,0,0,1,.4-.042c.166,0,.249-.028.249-.125s-.1-.125-.291-.125c-.54,0-1.413.042-1.745.042-.374,0-1.246-.042-1.994-.042-.194,0-.291.028-.291.125s.083.125.235.125a2.848,2.848,0,0,1,.54.042c.457.1.568.319.6.789.028.443.028.831.028,2.936v.291c0,.069-.042.1-.083.1Zm19.958,2.05c0,1.343,0,2.438-.069,3.019-.042.4-.125.637-.4.693a2.261,2.261,0,0,1-.5.055c-.166,0-.222.042-.222.111,0,.1.1.139.277.139.554,0,1.427-.042,1.745-.042.374,0,1.247.042,2.161.042.152,0,.263-.042.263-.139,0-.069-.069-.111-.222-.111a5.836,5.836,0,0,1-.706-.055c-.416-.055-.512-.3-.554-.679-.055-.6-.055-1.69-.055-3.033v-2.438c0-2.105,0-2.493.028-2.936.028-.485.138-.72.512-.789a2.34,2.34,0,0,1,.415-.042c.138,0,.222-.028.222-.139,0-.083-.111-.111-.291-.111-.526,0-1.343.042-1.69.042-.4,0-1.274-.042-1.8-.042-.222,0-.332.028-.332.111,0,.111.083.139.222.139a1.966,1.966,0,0,1,.5.055c.3.069.443.3.471.776.028.443.028.831.028,2.936Zm15.193-3.643h.042c.249.263,1.787,1.953,3.3,3.449,1.44,1.427,3.213,3.241,4.086,4.072.152.152.319.3.471.3.125,0,.18-.125.18-.429l.152-8.739c.014-.776.125-1.066.512-1.177a1.508,1.508,0,0,1,.415-.042q.249,0,.249-.125c0-.111-.139-.125-.319-.125-.679,0-1.2.042-1.357.042-.291,0-.956-.042-1.676-.042-.208,0-.36.014-.36.125,0,.083.055.125.222.125a2.259,2.259,0,0,1,.734.083c.332.139.457.4.471,1.246l.138,6.219h-.069c-.235-.222-2.105-2.216-3.047-3.158-2.022-2.008-4.127-4.224-4.293-4.4-.235-.249-.36-.429-.512-.429s-.18.194-.18.471l-.125,8.158c-.014,1.2-.069,1.607-.429,1.717a2.457,2.457,0,0,1-.623.069c-.139,0-.222.028-.222.111,0,.125.125.139.3.139.72,0,1.371-.042,1.5-.042.263,0,.817.042,1.717.042.194,0,.319-.028.319-.139,0-.083-.083-.111-.235-.111a2.2,2.2,0,0,1-.72-.1c-.277-.1-.457-.457-.485-1.537Zm20.8,3.643c0,1.274,0,2.368-.069,2.95-.055.4-.125.706-.4.762a2.261,2.261,0,0,1-.5.055c-.166,0-.222.042-.222.111,0,.1.1.139.277.139.277,0,.637-.028.956-.028s.637-.014.789-.014c.208,0,.623.014,1.039.042s.8.042.97.042c2.548,0,3.7-1.537,3.7-3.019a3.376,3.376,0,0,0-2.521-2.992,3.014,3.014,0,0,0,1.413-2.424c0-.734-.443-2.077-2.95-2.077-.471,0-1.011.042-1.69.042-.277,0-1.15-.042-1.884-.042-.208,0-.3.028-.3.125s.083.125.235.125a2.848,2.848,0,0,1,.54.042c.457.1.568.319.6.789.028.443.028.831.028,2.936Zm1.662-5.623c0-.152.028-.208.125-.235a2.242,2.242,0,0,1,.457-.028c1.191,0,1.731,1.219,1.731,2.147a1.806,1.806,0,0,1-.568,1.468,1.408,1.408,0,0,1-1,.263,3.382,3.382,0,0,1-.651-.042c-.055-.014-.1-.042-.1-.152Zm3.172,7.285a1.613,1.613,0,0,1-1.676,1.773,2.494,2.494,0,0,1-1.011-.166c-.443-.18-.485-.415-.485-1.33V-36.88c0-.069.028-.1.083-.1.208,0,.346,0,.6.014a1.99,1.99,0,0,1,1.15.332A3.3,3.3,0,0,1,188.49-33.875Zm16.98-1.177a.133.133,0,0,1,.138.1l1.108,2.853a.226.226,0,0,1-.125.319c-.138.014-.194.042-.194.125s.166.1.416.111c1.108.028,2.119.028,2.618.028s.637-.028.637-.139-.069-.111-.18-.111a3.038,3.038,0,0,1-.582-.055c-.291-.069-.693-.263-1.219-1.51-.886-2.105-3.1-7.645-3.435-8.407-.139-.319-.222-.443-.346-.443s-.222.152-.388.554l-3.476,8.587c-.277.692-.54,1.163-1.177,1.246a4.192,4.192,0,0,1-.429.028c-.111,0-.166.028-.166.111,0,.111.083.139.263.139.72,0,1.482-.042,1.634-.042.429,0,1.025.042,1.468.042.152,0,.235-.028.235-.139,0-.083-.042-.111-.208-.111h-.208c-.429,0-.554-.18-.554-.429a2.687,2.687,0,0,1,.208-.845l.748-1.9c.028-.083.055-.111.125-.111Zm-2.812-.693c-.055,0-.069-.042-.055-.1l1.274-3.393c.014-.055.042-.125.083-.125s.055.069.069.125l1.246,3.407c.014.042,0,.083-.069.083Zm18.3,4.418a4,4,0,0,0,2.2-.568,2.791,2.791,0,0,0,1.3-2.41c0-1.316-.6-2.271-2.271-3.532l-.388-.291c-1.15-.873-1.468-1.357-1.468-1.994a1.458,1.458,0,0,1,1.648-1.427,1.754,1.754,0,0,1,1.51.679,1.677,1.677,0,0,1,.36.914c0,.166.042.249.138.249s.152-.111.152-.416c0-1.08.055-1.482.055-1.662,0-.1-.069-.139-.194-.166a6.7,6.7,0,0,0-1.842-.235c-1.925,0-3.2,1.094-3.2,2.618,0,1.122.526,2.091,2.05,3.282l.637.5c1.15.9,1.357,1.537,1.357,2.216a1.683,1.683,0,0,1-1.856,1.579,1.909,1.909,0,0,1-1.981-1.4,2.927,2.927,0,0,1-.125-.706c0-.111-.014-.235-.138-.235s-.152.152-.166.36-.069,1.053-.069,1.814c0,.3.042.374.263.471A4.8,4.8,0,0,0,220.954-31.327Zm16.925-6.26c-.042,0-.083-.028-.083-.1v-.291c0-2.105,0-2.493.028-2.936.028-.485.139-.72.512-.789a2.462,2.462,0,0,1,.4-.042c.166,0,.249-.028.249-.125s-.1-.125-.291-.125c-.54,0-1.413.042-1.745.042-.374,0-1.246-.042-1.994-.042-.194,0-.291.028-.291.125s.083.125.235.125a2.848,2.848,0,0,1,.54.042c.457.1.568.319.6.789.028.443.028.831.028,2.936v2.438c0,1.274,0,2.368-.069,2.95-.055.4-.125.706-.4.762a2.261,2.261,0,0,1-.5.055c-.166,0-.222.042-.222.111,0,.1.1.139.277.139.554,0,1.427-.042,1.745-.042.388,0,1.26.042,2.161.042.166,0,.277-.042.277-.139,0-.069-.069-.111-.222-.111a5.836,5.836,0,0,1-.706-.055c-.415-.055-.5-.36-.54-.748-.069-.6-.069-1.69-.069-2.964v-1.219a.073.073,0,0,1,.083-.083h5.291a.08.08,0,0,1,.083.083v1.219c0,1.274,0,2.368-.069,2.95-.055.4-.125.706-.4.762a2.261,2.261,0,0,1-.5.055c-.166,0-.222.042-.222.111,0,.1.1.139.291.139.54,0,1.413-.042,1.731-.042.388,0,1.26.042,2.161.042.166,0,.277-.042.277-.139,0-.069-.069-.111-.222-.111a5.838,5.838,0,0,1-.706-.055c-.415-.055-.5-.36-.54-.748-.069-.6-.069-1.69-.069-2.964v-2.438c0-2.105,0-2.493.028-2.936.028-.485.138-.72.512-.789a2.462,2.462,0,0,1,.4-.042c.166,0,.249-.028.249-.125s-.1-.125-.291-.125c-.54,0-1.413.042-1.745.042-.374,0-1.247-.042-1.994-.042-.194,0-.291.028-.291.125s.083.125.235.125a2.848,2.848,0,0,1,.54.042c.457.1.568.319.6.789.028.443.028.831.028,2.936v.291c0,.069-.042.1-.083.1Zm19.958,2.05c0,1.343,0,2.438-.069,3.019-.042.4-.125.637-.4.693a2.261,2.261,0,0,1-.5.055c-.166,0-.222.042-.222.111,0,.1.1.139.277.139.554,0,1.427-.042,1.745-.042.374,0,1.246.042,2.161.042.152,0,.263-.042.263-.139,0-.069-.069-.111-.222-.111a5.836,5.836,0,0,1-.706-.055c-.416-.055-.512-.3-.554-.679-.055-.6-.055-1.69-.055-3.033v-2.438c0-2.105,0-2.493.028-2.936.028-.485.138-.72.512-.789a2.34,2.34,0,0,1,.415-.042c.139,0,.222-.028.222-.139,0-.083-.111-.111-.291-.111-.526,0-1.343.042-1.69.042-.4,0-1.274-.042-1.8-.042-.222,0-.332.028-.332.111,0,.111.083.139.222.139a1.966,1.966,0,0,1,.5.055c.3.069.443.3.471.776.028.443.028.831.028,2.936Zm27.035,0c0,1.274,0,2.368-.069,2.95-.055.4-.125.706-.4.762a2.26,2.26,0,0,1-.5.055c-.166,0-.222.042-.222.111,0,.1.1.139.277.139.277,0,.637-.028.956-.028s.637-.014.789-.014c.346,0,.831.042,1.357.083s1.094.083,1.593.083a6.315,6.315,0,0,0,4.64-1.634,5.5,5.5,0,0,0,1.51-3.864,4.948,4.948,0,0,0-1.343-3.518c-1.51-1.579-3.823-1.579-5.554-1.579-.831,0-1.7.042-2.133.042-.388,0-1.26-.042-1.994-.042-.208,0-.3.028-.3.125s.083.125.236.125a2.849,2.849,0,0,1,.54.042c.457.1.568.319.6.789.028.443.028.831.028,2.936ZM286.6-38.2c0-1.094,0-2.3.014-2.77a.251.251,0,0,1,.166-.277,3.7,3.7,0,0,1,.9-.1,5.49,5.49,0,0,1,3.933,1.385,4.708,4.708,0,0,1,1.33,3.462,4.373,4.373,0,0,1-1.163,3.449,4.451,4.451,0,0,1-3.185,1c-1.094,0-1.634-.291-1.814-.554a3.025,3.025,0,0,1-.152-1.053c-.014-.263-.028-1.33-.028-2.8Zm19.4,2.659c0,1.274,0,2.368-.069,2.95-.055.4-.125.706-.4.762a2.26,2.26,0,0,1-.5.055c-.166,0-.222.042-.222.111,0,.1.1.139.277.139.277,0,.637-.028.956-.028s.637-.014.789-.014c.416,0,.845.014,1.44.042s1.357.042,2.4.042c.526,0,.651,0,.748-.36a10.865,10.865,0,0,0,.18-1.537c0-.138,0-.249-.111-.249s-.125.055-.152.208c-.1.568-.263.859-.623,1.025a3.513,3.513,0,0,1-1.3.166c-1.413,0-1.634-.208-1.662-1.163-.014-.4,0-1.676,0-2.147v-1.094c0-.083.014-.138.083-.138.332,0,1.7.014,1.967.042.512.055.706.263.776.54a3.653,3.653,0,0,1,.055.5.11.11,0,0,0,.125.125c.125,0,.125-.152.125-.263s.042-.651.055-.928c.055-.706.111-.928.111-1.011s-.042-.111-.1-.111-.125.069-.222.18a.967.967,0,0,1-.665.208c-.319.028-1.911.028-2.216.028-.083,0-.1-.055-.1-.152v-3.5c0-.1.028-.138.1-.138.277,0,1.731.028,1.967.055.693.083.831.249.928.5a1.487,1.487,0,0,1,.083.5c0,.125.028.194.125.194s.125-.083.139-.152c.028-.166.055-.776.069-.914a8.874,8.874,0,0,1,.111-.9c0-.069-.014-.125-.083-.125a1.3,1.3,0,0,0-.222.055,5.523,5.523,0,0,1-.6.083c-.263.014-3.019.014-3.463.014-.194,0-.512-.014-.873-.028s-.748-.014-1.122-.014c-.208,0-.3.028-.3.125s.083.125.235.125a2.848,2.848,0,0,1,.54.042c.457.1.568.319.6.789.028.443.028.831.028,2.936Zm17.686-3.643h.042c.249.263,1.787,1.953,3.3,3.449,1.44,1.427,3.213,3.241,4.086,4.072.152.152.319.3.471.3.125,0,.18-.125.18-.429l.152-8.739c.014-.776.125-1.066.512-1.177a1.509,1.509,0,0,1,.415-.042q.249,0,.249-.125c0-.111-.138-.125-.319-.125-.679,0-1.2.042-1.357.042-.291,0-.956-.042-1.676-.042-.208,0-.36.014-.36.125,0,.083.055.125.222.125a2.259,2.259,0,0,1,.734.083c.332.139.457.4.471,1.246l.138,6.219h-.069c-.235-.222-2.105-2.216-3.047-3.158-2.022-2.008-4.127-4.224-4.293-4.4-.235-.249-.36-.429-.512-.429s-.18.194-.18.471l-.125,8.158c-.014,1.2-.069,1.607-.429,1.717a2.457,2.457,0,0,1-.623.069c-.138,0-.222.028-.222.111,0,.125.125.139.3.139.72,0,1.371-.042,1.5-.042.263,0,.817.042,1.717.042.194,0,.319-.028.319-.139,0-.083-.083-.111-.235-.111a2.2,2.2,0,0,1-.72-.1c-.277-.1-.457-.457-.485-1.537Zm22.645,3.643c0,1.274,0,2.368-.069,2.95-.042.4-.125.706-.4.762a2.26,2.26,0,0,1-.5.055c-.166,0-.222.042-.222.111,0,.1.1.139.277.139.554,0,1.427-.042,1.745-.042.388,0,1.26.042,2.174.042.152,0,.263-.042.263-.139,0-.069-.069-.111-.222-.111a5.837,5.837,0,0,1-.706-.055c-.415-.055-.5-.36-.54-.748-.069-.6-.069-1.69-.069-2.964v-5.678l1.745.042c1.233.028,1.607.416,1.634.776l.014.152c.014.208.042.277.152.277.083,0,.111-.083.125-.222,0-.36.042-1.316.042-1.607,0-.208-.014-.291-.111-.291a3.324,3.324,0,0,0-.374.069,6.636,6.636,0,0,1-.956.069h-5.485c-.457,0-.983-.028-1.385-.069a3.207,3.207,0,0,1-.6-.166c-.083,0-.125.083-.166.263-.028.111-.291,1.371-.291,1.593,0,.152.028.222.125.222s.125-.055.152-.166a1.64,1.64,0,0,1,.235-.485c.208-.3.54-.374,1.343-.4l2.064-.055Zm19.113.485a.133.133,0,0,1,.139.1L366.7-32.1a.226.226,0,0,1-.125.319c-.138.014-.194.042-.194.125s.166.1.415.111c1.108.028,2.119.028,2.618.028s.637-.028.637-.139-.069-.111-.18-.111a3.039,3.039,0,0,1-.582-.055c-.291-.069-.692-.263-1.219-1.51-.886-2.105-3.1-7.645-3.435-8.407-.139-.319-.222-.443-.346-.443s-.222.152-.388.554l-3.476,8.587c-.277.692-.54,1.163-1.177,1.246a4.192,4.192,0,0,1-.429.028c-.111,0-.166.028-.166.111,0,.111.083.139.263.139.72,0,1.482-.042,1.634-.042.429,0,1.025.042,1.468.042.152,0,.235-.028.235-.139,0-.083-.042-.111-.208-.111h-.208c-.429,0-.554-.18-.554-.429a2.688,2.688,0,0,1,.208-.845l.748-1.9c.028-.083.055-.111.125-.111Zm-2.812-.693c-.055,0-.069-.042-.055-.1l1.274-3.393c.014-.055.042-.125.083-.125s.055.069.069.125l1.246,3.407c.014.042,0,.083-.069.083Zm18.905-2.23c0-2.105,0-2.493.028-2.936.028-.485.138-.72.512-.789a3.686,3.686,0,0,1,.54-.042c.166,0,.249-.028.249-.125s-.1-.125-.291-.125c-.54,0-1.551.042-1.884.042-.374,0-1.247-.042-1.9-.042-.208,0-.3.028-.3.125s.083.125.235.125a2.056,2.056,0,0,1,.457.042c.457.1.568.319.6.789.028.443.028.831.028,2.936v2.438c0,1.274,0,2.368-.069,2.95-.055.4-.125.706-.4.762a2.26,2.26,0,0,1-.5.055c-.166,0-.222.042-.222.111,0,.1.1.139.277.139.277,0,.637-.028.956-.028s.637-.014.789-.014c.568,0,1.066.014,1.69.042s1.343.042,2.341.042c.72,0,.789-.069.873-.374a10.93,10.93,0,0,0,.208-1.593c0-.166-.014-.235-.111-.235s-.138.083-.152.208a1.737,1.737,0,0,1-.36.831c-.346.374-.886.388-1.62.388-1.08,0-1.44-.1-1.676-.3-.291-.249-.291-1.2-.291-2.978Z" transform="translate(2754.563 -342.492)" fill="#555"/>
    </g>
    <g id="グループ_39" data-name="グループ 39" transform="translate(62.606 44)">
      <g id="グループ_38" data-name="グループ 38" clip-path="url(#clip-path)">
        <path id="パス_22" data-name="パス 22" d="M114.693,144.766c-.01-.472.162-.676.653-.663.879.025,1.761.04,2.638-.005.607-.031.764.189.761.777-.021,4.531-.01,9.063-.01,13.594,0,6.531-.015,5.056.016,11.587,0,.788-.232,1.025-.991.958a13.4,13.4,0,0,0-2.157,0c-.689.051-.934-.164-.921-.886.041-2.345.029-24.481.011-25.36" transform="translate(-96.321 -121.025)" fill="#f3b3b3"/>
        <path id="パス_23" data-name="パス 23" d="M118.345.008a.445.445,0,0,1,.447.445v.606q0,6.915,0,13.829c0,1.024,0,1.025,1.064,1.026,3.118,0,6.236.023,9.354-.015a.921.921,0,0,1,.948.991,19.258,19.258,0,0,0,0,2.037c.017.5-.153.714-.687.713q-7.034-.021-14.069,0c-.5,0-.649-.193-.648-.661q.012-9.153,0-18.306c0-.378.026-.683.543-.673.983.02,1.967.01,3.048.008" transform="translate(-96.379 0)" fill="#f3b3b3"/>
        <path id="パス_24" data-name="パス 24" d="M11.352,118.371V103.129c-.354-.024-.659-.063-.964-.063-3.171,0-6.342-.018-9.512.01-.7.006-.96-.192-.853-1.01a7.422,7.422,0,0,0-.005-1.8c-.084-.737.159-.934.813-.929,2.931.025,5.862.011,8.793.011,1.679,0,3.357.008,5.036,0,.465,0,.753.078.751.648-.014,4.017-.028,15.956-.03,18.486a.477.477,0,0,1-.475.477c-.691,0-2,.01-2.96.013a.591.591,0,0,1-.592-.591" transform="translate(0 -83.43)" fill="#f3b3b3"/>
        <path id="パス_25" data-name="パス 25" d="M71.709,40.452h2.9a.555.555,0,0,1,.554.554c0,1.911.007,3.794-.02,5.677a.619.619,0,0,1-.435.419c-.986.03-1.974.023-3,.02a.554.554,0,0,1-.553-.554V41.006a.554.554,0,0,1,.554-.554" transform="translate(-59.763 -33.976)" fill="#f3b3b3"/>
      </g>
    </g>
  </g>
</svg>
