<svg id="グループ_39" data-name="グループ 39" xmlns="http://www.w3.org/2000/svg" xmlns:xlink="http://www.w3.org/1999/xlink" width="33.781" height="50" viewBox="0 0 33.781 50">
  <defs>
    <clipPath id="clip-path">
      <rect id="長方形_23" data-name="長方形 23" width="33.781" height="50" fill="#f3b3b3"/>
    </clipPath>
  </defs>
  <g id="グループ_38" data-name="グループ 38" clip-path="url(#clip-path)">
    <path id="パス_22" data-name="パス 22" d="M114.693,144.766c-.01-.472.162-.676.653-.663.879.025,1.761.04,2.638-.005.607-.031.764.189.761.777-.021,4.531-.01,9.063-.01,13.594,0,6.531-.015,5.056.016,11.587,0,.788-.232,1.025-.991.958a13.4,13.4,0,0,0-2.157,0c-.689.051-.934-.164-.921-.886.041-2.345.029-24.481.011-25.36" transform="translate(-96.321 -121.025)" fill="#f3b3b3"/>
    <path id="パス_23" data-name="パス 23" d="M118.345.008a.445.445,0,0,1,.447.445v.606q0,6.915,0,13.829c0,1.024,0,1.025,1.064,1.026,3.118,0,6.236.023,9.354-.015a.921.921,0,0,1,.948.991,19.258,19.258,0,0,0,0,2.037c.017.5-.153.714-.687.713q-7.034-.021-14.069,0c-.5,0-.649-.193-.648-.661q.012-9.153,0-18.306c0-.378.026-.683.543-.673.983.02,1.967.01,3.048.008" transform="translate(-96.379 0)" fill="#f3b3b3"/>
    <path id="パス_24" data-name="パス 24" d="M11.352,118.371V103.129c-.354-.024-.659-.063-.964-.063-3.171,0-6.342-.018-9.512.01-.7.006-.96-.192-.853-1.01a7.422,7.422,0,0,0-.005-1.8c-.084-.737.159-.934.813-.929,2.931.025,5.862.011,8.793.011,1.679,0,3.357.008,5.036,0,.465,0,.753.078.751.648-.014,4.017-.028,15.956-.03,18.486a.477.477,0,0,1-.475.477c-.691,0-2,.01-2.96.013a.591.591,0,0,1-.592-.591" transform="translate(0 -83.43)" fill="#f3b3b3"/>
    <path id="パス_25" data-name="パス 25" d="M71.709,40.452h2.9a.555.555,0,0,1,.554.554c0,1.911.007,3.794-.02,5.677a.619.619,0,0,1-.435.419c-.986.03-1.974.023-3,.02a.554.554,0,0,1-.553-.554V41.006a.554.554,0,0,1,.554-.554" transform="translate(-59.763 -33.976)" fill="#f3b3b3"/>
  </g>
</svg>
